<svg width="460" height="416" viewBox="0 0 460 416" fill="none" xmlns="http://www.w3.org/2000/svg">
<rect width="460" height="416" fill="#1E1E1E"/>
<path d="M1 106.229C1 146.105 2.97995 231.208 4.98994 257.868C5.97995 263.905 7.95997 268.212 8.97999 273.662C10 279.111 10 285.572 10 292.229" stroke="white" stroke-width="2" stroke-linecap="round"/>
<path d="M15 109.229C16.8763 109.229 67.5644 109.229 144.776 109.889C172.267 110.549 176.019 111.869 183.581 112.549C191.143 113.229 202.401 113.229 214 113.229" stroke="white" stroke-width="2" stroke-linecap="round"/>
<path d="M214 113.229V276.229" stroke="white" stroke-width="2" stroke-linecap="round"/>
<path d="M214 275.674C207.427 275.674 192.353 271.347 174.872 268.577C157.95 265.896 141.354 254.958 90.9489 253.27C68.4785 252.517 53.5206 262.497 37.9233 267.463C33.6592 269.085 28.9842 272.33 25.1734 275.624C21.3625 278.919 18.5575 282.164 24.1676 282.229" stroke="white" stroke-width="2" stroke-linecap="round"/>
<path d="M24 282.548C24 290.107 27.7537 307.439 30.1566 338.358C31.7451 358.798 35.3748 375.858 47.1052 388.89C92.5478 439.375 125.351 398.729 192.463 399.299C210.716 399.454 220.161 396.579 229.63 393.353C239.406 390.024 237.28 336.175 235.403 276.423C233.526 257.527 229.773 261.827 225.493 265.118C221.213 268.408 216.521 270.559 203.155 279.29" stroke="white" stroke-width="2" stroke-linecap="round"/>
<path d="M72 299.229H81" stroke="white" stroke-width="2" stroke-linecap="round"/>
<path d="M109 299.229H112" stroke="white" stroke-width="2" stroke-linecap="round"/>
<path d="M149 299.229H172" stroke="white" stroke-width="2" stroke-linecap="round"/>
<path d="M89 321.229H109" stroke="white" stroke-width="2" stroke-linecap="round"/>
<path d="M138 325.229H146" stroke="white" stroke-width="2" stroke-linecap="round"/>
<path d="M183 325.229H200" stroke="white" stroke-width="2" stroke-linecap="round"/>
<path d="M109 351.229H123" stroke="white" stroke-width="2" stroke-linecap="round"/>
<path d="M146 351.229H152" stroke="white" stroke-width="2" stroke-linecap="round"/>
<path d="M186 351.229L200 347.229" stroke="white" stroke-width="2" stroke-linecap="round"/>
<path d="M314.975 130.005C332.944 124.557 351.777 120.205 359.282 119.125C354.468 119.125 349.795 119.125 349.384 118.569C360.302 116.966 375.368 121.318 390.491 125.686C405.614 130.054 426.318 130.154 431.514 146.464C432.915 150.865 433.539 156.386 432.434 161.745C428.158 182.474 436.586 205.92 418.217 238.149C408.305 255.54 397.911 266.436 390.378 272.964C382.845 279.492 365.893 288.268 346.439 282.175C327.11 276.122 308.102 267.15 297.883 249.405C293.182 241.241 276.167 178.14 297.487 149.065C302.669 141.998 307.135 132.382 314.975 130.005Z" stroke="white" stroke-width="2" stroke-linecap="round"/>
<path d="M277 380.229C277.938 372.704 285.474 357.587 296.864 338.676C307.407 321.17 319.6 308.93 336.179 296.474C350.251 285.901 366.976 287.262 384.522 285.088C392.998 284.039 407.699 279.671 425.7 281.812C443.769 283.961 443.814 316.326 449.971 334.751C451.407 339.098 452.346 343.38 453.768 347.726C455.189 352.073 457.066 356.355 459 367.254" stroke="white" stroke-width="2" stroke-linecap="round"/>
<path d="M20.8 14.0293C19.736 16.6853 18.144 20.9413 16.936 25.4773C15.4214 31.1647 16 42.4773 17.06 49.8813C17.6865 54.2572 19.728 59.0692 21.06 63.6133C22.4768 68.4466 25.856 72.1413 30.116 76.9452C33.3869 80.6338 38.112 81.7573 43.048 82.9573C47.6514 84.0764 52.768 85.2292 57.584 83.7692C62.2306 82.3606 66.384 78.8453 70.12 74.8453C73.408 71.3249 75.984 66.5892 78.26 61.9133C80.8806 56.5292 82.128 50.3172 83.064 45.3853C83.464 37.5093 84.528 31.6613 85.464 24.9973C85.6 22.0773 85.6 17.3253 84.8 12.4293" stroke="white" stroke-width="2" stroke-linecap="round"/>
<path d="M128.8 5.22925C128.272 7.34928 126.672 13.7253 124.94 19.0773C122.15 27.6993 118.944 40.1253 117.472 46.8053C116.098 53.0402 113.088 63.5493 111.736 72.8053C110.944 75.3413 110.4 77.7493 110.004 80.1453C109.608 81.2213 108.816 82.0133 108 82.8293" stroke="white" stroke-width="2" stroke-linecap="round"/>
<path d="M131.2 7.62927C133.056 9.48527 135.728 13.7413 139.716 20.5373C142.478 25.2441 145.584 29.7413 148.788 35.0733C152.421 41.1195 154.384 45.2133 158.252 51.8693C161.592 57.2133 163.992 61.7493 165.588 64.1453C166.392 65.2213 167.184 66.0133 168.8 69.2293" stroke="white" stroke-width="2" stroke-linecap="round"/>
<path d="M123.2 43.6293C126.656 43.8933 131.44 45.4853 135.984 46.8253C140.256 47.8933 146.096 48.4292 151.96 47.9012C154.128 47.3732 154.656 46.3172 156.8 42.8293" stroke="white" stroke-width="2" stroke-linecap="round"/>
<path d="M221.6 5.22925C215.52 5.22925 201.632 5.75727 193.628 6.42528C188.082 6.88814 183.488 12.4132 179.744 16.4133C176.165 20.2369 175.744 28.3973 173.208 35.2053C171.466 39.8809 172 49.6933 173.46 58.4053C173.714 59.9183 174.128 60.9413 174.792 61.7493C177.683 65.2668 182.912 66.2853 187.184 67.8893C192.035 69.7106 195.712 72.9572 199.984 74.6893C204.17 76.3865 213.264 77.2293 219.984 75.5053C224.256 72.7013 227.456 71.3653 229.584 70.9653C230.656 70.8293 231.712 70.8293 232.8 70.8293" stroke="white" stroke-width="2" stroke-linecap="round"/>
<path d="M208.8 47.6293C213.032 47.6293 225.28 50.2693 231.052 54.1493C233.243 55.6219 234.128 58.2853 234.796 60.4133C234.936 61.4853 234.672 62.5413 234.14 63.6133C233.608 64.6853 232.816 65.7413 230.4 69.2293" stroke="white" stroke-width="2" stroke-linecap="round"/>
<path d="M244 7.62927C244 9.74928 244.528 15.5973 244.932 25.4573C245.24 32.9727 246.128 38.2693 246.532 43.7413C246.928 46.7973 247.2 54.5013 247.332 64.2293C247.464 67.8853 247.728 68.9413 248.8 71.6293" stroke="white" stroke-width="2" stroke-linecap="round"/>
<path d="M243.2 6.82926C246.12 6.56527 251.44 4.97327 256.116 2.96927C260.789 0.966337 267.424 1.22925 276.768 4.81325C279.841 5.992 281.592 7.88527 282.924 10.0133C285.808 14.6207 283.472 21.7413 280.812 27.6053C277.897 34.0303 273.616 39.0692 269.484 41.8893C265.331 44.724 260.288 42.3013 255.62 41.3653C252.366 40.7128 249.344 41.4933 248.404 42.0253C242.026 45.6348 266.912 43.8853 271.052 48.2773C274.703 52.1503 277.584 57.1973 280.788 61.2173C282.384 62.8133 283.992 64.4213 285.456 66.1493C286.128 67.0853 286.656 68.1413 288 70.8293" stroke="white" stroke-width="2" stroke-linecap="round"/>
<path d="M315.2 5.22925C315.2 15.5573 315.728 32.1413 316.664 37.7413C317.937 45.358 318.128 57.1973 319.064 63.0733C319.2 64.6773 319.2 66.5252 319.464 68.0052C319.728 69.4852 320.256 70.5413 320.8 71.6293" stroke="white" stroke-width="2" stroke-linecap="round"/>
<path d="M317.6 2.82925C319.192 3.88526 322.384 8.14126 324.924 12.4133C327.612 16.9341 331.184 20.4132 334.916 24.4133C339.768 29.6139 343.984 31.6133 347.188 36.4092C348.056 37.7087 348.784 39.0692 349.852 39.4852C350.92 39.9012 352.24 39.3732 353.316 38.1772C358.11 32.8489 358.928 26.5892 361.324 20.0533C363.058 15.3221 365.856 11.1173 367.992 6.84526C369.056 4.71725 369.864 2.57326 370.528 1.63326C373.105 -2.01538 372.8 11.0693 374.26 16.2773C375.686 21.3654 376.784 29.4533 377.732 37.4693C378.339 42.5983 379.728 47.3412 380.264 53.7373C381.056 56.6693 381.864 59.0853 382.66 61.2133C383.192 62.2852 383.984 63.3412 385.6 64.4292" stroke="white" stroke-width="2" stroke-linecap="round"/>
</svg>
